HIERARCHY
ROOT Root
{
  OFFSET 0.0 0.0 0.0
  CHANNELS 6 Xposition Yposition Zposition Zrotation Yrotation Xrotation
  JOINT Hips
  {
    OFFSET 0.0 100.0 0.0
    CHANNELS 6 Xposition Yposition Zposition Zrotation Yrotation Xrotation
    JOINT Spine1
    {
      OFFSET 5.003913 -0.037094 -0.013727
      CHANNELS 3 Zrotation Yrotation Xrotation
      JOINT Spine2
      {
        OFFSET 7.125363 -1e-06 0.0
        CHANNELS 3 Zrotation Yrotation Xrotation
        JOINT Chest
        {
          OFFSET 7.594027 1e-06 0.0
          CHANNELS 3 Zrotation Yrotation Xrotation
          JOINT Neck1
          {
            OFFSET 26.313086 -0.460272 -0.181672
            CHANNELS 3 Zrotation Yrotation Xrotation
            JOINT Neck2
            {
              OFFSET 8.045911 0.0 0.0
              CHANNELS 3 Zrotation Yrotation Xrotation
              JOINT Head
              {
                OFFSET 6.432774 0.0 0.0
                CHANNELS 3 Zrotation Yrotation Xrotation
                JOINT HeadEnd
                {
                  OFFSET 16.169773 0.06451 0.00362
                  CHANNELS 3 Zrotation Yrotation Xrotation
                }
                JOINT Jaw
                {
                  OFFSET 0.108741 3.12938 0.002639
                  CHANNELS 3 Zrotation Yrotation Xrotation
                }
                JOINT LeftEye
                {
                  OFFSET 4.45173 8.166359 3.206392
                  CHANNELS 3 Zrotation Yrotation Xrotation
                }
                JOINT RightEye
                {
                  OFFSET 4.436895 8.135758 -3.222429
                  CHANNELS 3 Zrotation Yrotation Xrotation
                }
              }
            }
          }
          JOINT LeftShoulder
          {
            OFFSET 23.218927 5.195579 1.621656
            CHANNELS 3 Zrotation Yrotation Xrotation
            JOINT LeftArm
            {
              OFFSET 15.902118 2e-06 -2e-06
              CHANNELS 3 Zrotation Yrotation Xrotation
              JOINT LeftForeArm
              {
                OFFSET 28.739307 0.0 -1e-06
                CHANNELS 3 Zrotation Yrotation Xrotation
                JOINT LeftHand
                {
                  OFFSET 27.093981 -4e-06 0.0
                  CHANNELS 3 Zrotation Yrotation Xrotation
                  JOINT LeftHandThumb1
                  {
                    OFFSET 2.276781 3.380274 0.83384
                    CHANNELS 3 Zrotation Yrotation Xrotation
                    JOINT LeftHandThumb2
                    {
                      OFFSET 4.705309 -1e-06 -1e-06
                      CHANNELS 3 Zrotation Yrotation Xrotation
                      JOINT LeftHandThumb3
                      {
                        OFFSET 2.798515 0.0 3e-06
                        CHANNELS 3 Zrotation Yrotation Xrotation
                        JOINT LeftHandThumbEnd
                        {
                          OFFSET 3.180793 4e-06 -4e-06
                          CHANNELS 3 Zrotation Yrotation Xrotation
                        }
                      }
                    }
                  }
                  JOINT LeftHandIndex1
                  {
                    OFFSET 3.247786 2.352677 0.137192
                    CHANNELS 3 Zrotation Yrotation Xrotation
                    JOINT LeftHandIndex2
                    {
                      OFFSET 6.367095 1e-06 0.0
                      CHANNELS 3 Zrotation Yrotation Xrotation
                      JOINT LeftHandIndex3
                      {
                        OFFSET 3.662364 0.0 0.0
                        CHANNELS 3 Zrotation Yrotation Xrotation
                        JOINT LeftHandIndex4
                        {
                          OFFSET 2.329242 4e-06 -4e-06
                          CHANNELS 3 Zrotation Yrotation Xrotation
                          JOINT LeftHandIndexEnd
                          {
                            OFFSET 2.767823 1e-06 0.0
                            CHANNELS 3 Zrotation Yrotation Xrotation
                          }
                        }
                      }
                    }
                  }
                  JOINT LeftHandMiddle1
                  {
                    OFFSET 3.163612 0.945023 -0.406112
                    CHANNELS 3 Zrotation Yrotation Xrotation
                    JOINT LeftHandMiddle2
                    {
                      OFFSET 6.276789 3e-06 0.0
                      CHANNELS 3 Zrotation Yrotation Xrotation
                      JOINT LeftHandMiddle3
                      {
                        OFFSET 4.35652 -1e-06 4e-06
                        CHANNELS 3 Zrotation Yrotation Xrotation
                        JOINT LeftHandMiddle4
                        {
                          OFFSET 2.996877 0.0 8e-06
                          CHANNELS 3 Zrotation Yrotation Xrotation
                          JOINT LeftHandMiddleEnd
                          {
                            OFFSET 2.323256 3e-06 -4e-06
                            CHANNELS 3 Zrotation Yrotation Xrotation
                          }
                        }
                      }
                    }
                  }
                  JOINT LeftHandRing1
                  {
                    OFFSET 2.882606 -0.309162 0.107445
                    CHANNELS 3 Zrotation Yrotation Xrotation
                    JOINT LeftHandRing2
                    {
                      OFFSET 6.033198 0.0 4e-06
                      CHANNELS 3 Zrotation Yrotation Xrotation
                      JOINT LeftHandRing3
                      {
                        OFFSET 4.350578 3e-06 0.0
                        CHANNELS 3 Zrotation Yrotation Xrotation
                        JOINT LeftHandRing4
                        {
                          OFFSET 2.651321 2e-06 -7e-06
                          CHANNELS 3 Zrotation Yrotation Xrotation
                          JOINT LeftHandRingEnd
                          {
                            OFFSET 1.937663 1e-06 -4e-06
                            CHANNELS 3 Zrotation Yrotation Xrotation
                          }
                        }
                      }
                    }
                  }
                  JOINT LeftHandPinky1
                  {
                    OFFSET 2.865315 -1.525436 0.575687
                    CHANNELS 3 Zrotation Yrotation Xrotation
                    JOINT LeftHandPinky2
                    {
                      OFFSET 5.54936 1e-06 -8e-06
                      CHANNELS 3 Zrotation Yrotation Xrotation
                      JOINT LeftHandPinky3
                      {
                        OFFSET 3.070974 0.0 -4e-06
                        CHANNELS 3 Zrotation Yrotation Xrotation
                        JOINT LeftHandPinky4
                        {
                          OFFSET 1.549672 1e-06 0.0
                          CHANNELS 3 Zrotation Yrotation Xrotation
                          JOINT LeftHandPinkyEnd
                          {
                            OFFSET 1.952123 0.0 0.0
                            CHANNELS 3 Zrotation Yrotation Xrotation
                          }
                        }
                      }
                    }
                  }
                }
              }
            }
          }
          JOINT RightShoulder
          {
            OFFSET 23.161716 5.296122 -1.380114
            CHANNELS 3 Zrotation Yrotation Xrotation
            JOINT RightArm
            {
              OFFSET -16.027195 -2e-06 1.1e-05
              CHANNELS 3 Zrotation Yrotation Xrotation
              JOINT RightForeArm
              {
                OFFSET -28.736639 4e-06 2e-06
                CHANNELS 3 Zrotation Yrotation Xrotation
                JOINT RightHand
                {
                  OFFSET -27.133619 6e-06 0.0
                  CHANNELS 3 Zrotation Yrotation Xrotation
                  JOINT RightHandThumb1
                  {
                    OFFSET -2.274328 -3.351035 -0.83067
                    CHANNELS 3 Zrotation Yrotation Xrotation
                    JOINT RightHandThumb2
                    {
                      OFFSET -4.703594 -3e-06 2e-06
                      CHANNELS 3 Zrotation Yrotation Xrotation
                      JOINT RightHandThumb3
                      {
                        OFFSET -2.794935 -4e-06 -3e-06
                        CHANNELS 3 Zrotation Yrotation Xrotation
                        JOINT RightHandThumbEnd
                        {
                          OFFSET -3.183852 4e-06 1e-06
                          CHANNELS 3 Zrotation Yrotation Xrotation
                        }
                      }
                    }
                  }
                  JOINT RightHandIndex1
                  {
                    OFFSET -3.253496 -2.33755 -0.127667
                    CHANNELS 3 Zrotation Yrotation Xrotation
                    JOINT RightHandIndex2
                    {
                      OFFSET -6.344434 0.0 0.0
                      CHANNELS 3 Zrotation Yrotation Xrotation
                      JOINT RightHandIndex3
                      {
                        OFFSET -3.654871 0.0 -8e-06
                        CHANNELS 3 Zrotation Yrotation Xrotation
                        JOINT RightHandIndex4
                        {
                          OFFSET -2.327586 -1e-06 0.0
                          CHANNELS 3 Zrotation Yrotation Xrotation
                          JOINT RightHandIndexEnd
                          {
                            OFFSET -2.770001 3e-06 8e-06
                            CHANNELS 3 Zrotation Yrotation Xrotation
                          }
                        }
                      }
                    }
                  }
                  JOINT RightHandMiddle1
                  {
                    OFFSET -3.168223 -0.944764 0.411762
                    CHANNELS 3 Zrotation Yrotation Xrotation
                    JOINT RightHandMiddle2
                    {
                      OFFSET -6.266691 -1e-06 -4e-06
                      CHANNELS 3 Zrotation Yrotation Xrotation
                      JOINT RightHandMiddle3
                      {
                        OFFSET -4.348901 0.0 0.0
                        CHANNELS 3 Zrotation Yrotation Xrotation
                        JOINT RightHandMiddle4
                        {
                          OFFSET -3.00024 2e-06 -4e-06
                          CHANNELS 3 Zrotation Yrotation Xrotation
                          JOINT RightHandMiddleEnd
                          {
                            OFFSET -2.321477 -4e-06 -4e-06
                            CHANNELS 3 Zrotation Yrotation Xrotation
                          }
                        }
                      }
                    }
                  }
                  JOINT RightHandRing1
                  {
                    OFFSET -2.885654 0.293261 -0.119232
                    CHANNELS 3 Zrotation Yrotation Xrotation
                    JOINT RightHandRing2
                    {
                      OFFSET -6.032835 -1e-06 -4e-06
                      CHANNELS 3 Zrotation Yrotation Xrotation
                      JOINT RightHandRing3
                      {
                        OFFSET -4.33881 0.0 -4e-06
                        CHANNELS 3 Zrotation Yrotation Xrotation
                        JOINT RightHandRing4
                        {
                          OFFSET -2.654903 -4e-06 -4e-06
                          CHANNELS 3 Zrotation Yrotation Xrotation
                          JOINT RightHandRingEnd
                          {
                            OFFSET -1.935122 0.0 4e-06
                            CHANNELS 3 Zrotation Yrotation Xrotation
                          }
                        }
                      }
                    }
                  }
                  JOINT RightHandPinky1
                  {
                    OFFSET -2.866241 1.503904 -0.60527
                    CHANNELS 3 Zrotation Yrotation Xrotation
                    JOINT RightHandPinky2
                    {
                      OFFSET -5.553177 -2e-06 0.0
                      CHANNELS 3 Zrotation Yrotation Xrotation
                      JOINT RightHandPinky3
                      {
                        OFFSET -3.062664 -1e-06 -4e-06
                        CHANNELS 3 Zrotation Yrotation Xrotation
                        JOINT RightHandPinky4
                        {
                          OFFSET -1.546529 2e-06 4e-06
                          CHANNELS 3 Zrotation Yrotation Xrotation
                          JOINT RightHandPinkyEnd
                          {
                            OFFSET -1.952341 0.0 -4e-06
                            CHANNELS 3 Zrotation Yrotation Xrotation
                          }
                        }
                      }
                    }
                  }
                }
              }
            }
          }
        }
      }
    }
    JOINT LeftLeg
    {
      OFFSET -8.443107 2.567604 10.043214
      CHANNELS 3 Zrotation Yrotation Xrotation
      JOINT LeftShin
      {
        OFFSET 43.229198 1e-06 -1e-06
        CHANNELS 3 Zrotation Yrotation Xrotation
        JOINT LeftFoot
        {
          OFFSET 42.298611 1e-06 1e-06
          CHANNELS 3 Zrotation Yrotation Xrotation
          JOINT LeftToeBase
          {
            OFFSET 14.165858 1e-06 0.0
            CHANNELS 3 Zrotation Yrotation Xrotation
            JOINT LeftToeEnd
            {
              OFFSET 6.7141 -0.234461 0.0
              CHANNELS 3 Zrotation Yrotation Xrotation
            }
          }
        }
      }
    }
    JOINT RightLeg
    {
      OFFSET -8.303923 2.592729 -10.047278
      CHANNELS 3 Zrotation Yrotation Xrotation
      JOINT RightShin
      {
        OFFSET -43.369682 0.0 1e-06
        CHANNELS 3 Zrotation Yrotation Xrotation
        JOINT RightFoot
        {
          OFFSET -42.260784 4e-06 2e-06
          CHANNELS 3 Zrotation Yrotation Xrotation
          JOINT RightToeBase
          {
            OFFSET -14.222245 -2e-06 -1e-06
            CHANNELS 3 Zrotation Yrotation Xrotation
            JOINT RightToeEnd
            {
              OFFSET -6.660062 0.232574 -2e-06
              CHANNELS 3 Zrotation Yrotation Xrotation
            }
          }
        }
      }
    }
  }
}
MOTION
Frames: 4
Frame Time: 0.03333333333333333
0.0 0.0 0.0 0.0 -0.0 0.0 -0.772128 100.010788 -3.522356 90.911926 0.222842 90.136078 -1.485322 -0.562359 0.240527 -11.170559 -0.288879 0.187366 15.516028 -0.153544 -1.502993 20.348215 -1.571367 2.480678 -2.551525 -0.833051 -0.572576 -29.708889 0.465107 -1.226137 6e-06 0.0 -0.0 -0.023325 0.028094 0.024455 0.025651 0.05156 0.036518 0.038592 0.000196 0.017711 -134.064178 -58.778927 155.404755 41.398964 -45.371376 4.630901 22.722067 0.021167 0.051865 -3.87391 2.929736 -6.818082 17.636627 -26.322729 52.41119 -19.466663 -14.395596 29.410389 -1e-06 -8.774821 -1e-06 16.309921 -17.759409 5.754494 -0.609775 -1.795654 -3.889327 -4.807087 -11.046811 -2.93785 6e-06 -20.976021 -1e-06 -5.019969 -25.033556 -4.031881 6e-06 -2e-06 1e-06 -10.634531 -5.686971 -3.565588 10.573272 -17.922955 -3.113902 4e-06 -13.821211 1e-06 -0.501774 -31.181505 -4.027014 -10.322397 -59.449661 6.020672 -13.982712 -7.150197 -2.875042 13.772728 -8.401493 -3.218243 0.347735 -34.211555 0.771655 -0.963027 -17.733372 2.621017 1e-06 1e-06 -1e-06 -17.346415 -20.095221 -4.201784 21.757555 -1.638375 3.866426 3e-06 -6.338826 2e-06 -1.697584 -22.591742 -6.194005 0.0 -3e-06 -2e-06 64.077072 -72.788383 130.964706 36.430653 -63.150494 11.391289 28.682447 -0.137385 0.080021 -0.558435 -1.41419 8.222206 22.182121 -20.3759 49.933327 -16.701815 -16.743528 28.476532 -4e-06 -12.690601 -2e-06 16.298767 -17.722969 2.412458 -0.105919 -1.513856 -4.275881 -5.03904 -5.612871 -2.953557 5e-06 -11.020523 -1e-06 -6.111295 -15.895334 -3.84047 -0.0 1e-06 -3e-06 -10.283372 -5.680288 -4.34184 11.028297 -11.302407 -2.372635 -1.384268 -14.238583 -6.320123 -0.625436 -26.924198 -3.827604 -4.433699 -49.968719 -3.770726 -13.708525 -7.363475 -3.720939 18.141153 -14.052744 -3.242676 9e-06 -18.78727 -1e-06 -0.429711 -8.456048 2.555506 1e-06 -0.0 -0.0 -15.923536 -20.094482 -5.473587 30.419218 -7.190831 1.735924 4e-06 -8.162929 2e-06 -1.861898 -22.861473 -6.167941 1e-06 -4e-06 -2e-06 179.922821 -3.74512 -7.487129 9.815923 -0.011787 0.099166 -77.587608 -6.265896 -10.949765 -5.884508 1.509613 2.098619 -1.0 1e-06 0.0 1.474787 -6.003732 -5.621439 10.141887 0.046581 0.024331 -80.486008 4.332671 -8.679619 -5.610719 0.781541 1.689328 -1.000001 0.0 0.0 
0.0 0.0 0.0 0.0 -0.0 0.0 -0.74977 100.036026 -3.531364 90.909508 0.210546 90.11689 -1.498394 -0.573297 0.224214 -11.170917 -0.272262 0.262907 15.529125 -0.141539 -1.55364 20.339821 -1.583782 2.472652 -2.540228 -0.803786 -0.551015 -29.784437 0.429129 -1.212611 5e-06 0.0 -0.0 -0.024666 0.025889 0.032427 0.041786 0.051903 0.04865 0.050887 -0.004355 0.022008 -134.079681 -58.791065 155.522415 41.562782 -45.289181 4.268062 22.667076 -0.101978 0.009712 -3.860734 2.924819 -6.535965 17.636627 -26.322729 52.411179 -19.466656 -14.395596 29.410381 -0.0 -8.774821 -2e-06 16.257059 -17.737196 5.767678 -0.609776 -1.795653 -3.889325 -4.807088 -11.046811 -2.93785 5e-06 -20.976021 -1e-06 -5.019971 -25.033556 -4.03188 6e-06 -1e-06 1e-06 -10.634533 -5.68697 -3.565588 10.573272 -17.922949 -3.113901 3e-06 -13.821209 1e-06 -0.501777 -31.181505 -4.027016 -10.359281 -59.355328 6.128099 -13.982712 -7.150198 -2.875041 13.772729 -8.401491 -3.218242 0.347731 -34.211552 0.771656 -0.963029 -17.73337 2.621018 0.0 -0.0 -2e-06 -17.346416 -20.095217 -4.201781 21.757557 -1.638375 3.866427 1e-06 -6.338823 2e-06 -1.697589 -22.591738 -6.194005 -1e-06 -1e-06 -2e-06 64.027267 -72.720833 131.091873 36.460537 -63.083511 11.300193 28.618427 -0.155275 0.047784 -0.578551 -1.458423 8.154683 22.18211 -20.375896 49.933319 -16.701811 -16.743528 28.476522 -5e-06 -12.6906 -2e-06 16.254789 -17.708014 2.412789 -0.105919 -1.513855 -4.275886 -5.039039 -5.61287 -2.953555 5e-06 -11.020523 -3e-06 -6.111295 -15.89533 -3.840469 1e-06 -0.0 -2e-06 -10.283368 -5.680286 -4.341841 11.028293 -11.302404 -2.372631 -1.384269 -14.238579 -6.32012 -0.625436 -26.924191 -3.8276 -4.47085 -50.006504 -3.732884 -13.708523 -7.363473 -3.720939 18.14115 -14.052739 -3.242675 8e-06 -18.78727 -3e-06 -0.429711 -8.456045 2.555506 -0.0 1e-06 -0.0 -15.923528 -20.094479 -5.473588 30.419205 -7.190824 1.735925 2e-06 -8.162925 3e-06 -1.861902 -22.861465 -6.167941 1e-06 -3e-06 -3e-06 -179.881073 -3.710145 -7.492631 9.390565 0.000219 0.133649 -77.394318 -6.2918 -10.997474 -5.944664 1.525391 2.10376 -0.999999 0.0 -0.0 1.677647 -5.986456 -5.614457 9.669075 0.034689 0.031903 -80.257179 4.318529 -8.66917 -5.67627 0.762965 1.689334 -1.000002 -0.0 0.0 
0.0 0.0 0.0 0.0 -0.0 0.0 -0.741307 100.039505 -3.607952 90.920525 0.199439 90.100624 -1.518802 -0.587452 0.208551 -11.187308 -0.265053 0.300467 15.584551 -0.142376 -1.578087 20.324041 -1.574766 2.485016 -2.563247 -0.768087 -0.579629 -29.787975 0.395787 -1.222273 6e-06 0.0 -0.0 -0.027958 0.02526 0.035284 0.035395 0.052133 0.054147 0.045026 -0.005916 0.022007 -134.145142 -58.828938 155.637527 41.635117 -45.226093 4.096617 22.649694 -0.192374 -0.025955 -3.954609 2.936961 -6.389563 17.636627 -26.322729 52.41119 -19.46666 -14.395598 29.410389 0.0 -8.774822 -2e-06 16.247749 -17.764854 5.776582 -0.609776 -1.795653 -3.889329 -4.80709 -11.04681 -2.93785 3e-06 -20.976017 1e-06 -5.019973 -25.033556 -4.031879 6e-06 -0.0 1e-06 -10.634535 -5.68697 -3.565586 10.573272 -17.922947 -3.1139 2e-06 -13.821206 2e-06 -0.50178 -31.181501 -4.027016 -10.405165 -59.3269 6.151048 -13.982714 -7.150198 -2.875042 13.772728 -8.401489 -3.218241 0.347728 -34.211544 0.771659 -0.96303 -17.73337 2.62102 2e-06 -0.0 -1e-06 -17.346416 -20.095217 -4.201784 21.757557 -1.638374 3.866428 2e-06 -6.338825 2e-06 -1.697591 -22.591743 -6.194005 -1e-06 -3e-06 -1e-06 63.943077 -72.672691 131.222687 36.410381 -63.039349 11.285699 28.568741 -0.18245 0.03239 -0.584779 -1.428845 8.178659 22.182116 -20.375883 49.9333 -16.701801 -16.743526 28.476522 -1e-06 -12.690601 -1e-06 16.243164 -17.681633 2.422173 -0.105919 -1.513854 -4.275881 -5.039042 -5.612872 -2.953557 2e-06 -11.02052 -1e-06 -6.111301 -15.89533 -3.840469 -0.0 0.0 -2e-06 -10.283371 -5.680288 -4.341839 11.028292 -11.302401 -2.372633 -1.384272 -14.238577 -6.32012 -0.625441 -26.924183 -3.8276 -4.506629 -50.016674 -3.709355 -13.708526 -7.363478 -3.720942 18.14115 -14.052734 -3.242676 5e-06 -18.787266 -3e-06 -0.429714 -8.456043 2.555503 2e-06 -1e-06 -0.0 -15.923538 -20.094482 -5.473585 30.41921 -7.190819 1.735929 1e-06 -8.162922 2e-06 -1.861905 -22.861465 -6.167945 0.0 -3e-06 -2e-06 -179.945496 -3.69554 -7.46711 9.417776 0.002245 0.152296 -77.368591 -6.287428 -11.007994 -5.930479 1.523468 2.10572 -1.0 0.0 0.0 1.557513 -6.00857 -5.594086 9.798293 0.033247 0.030905 -80.264755 4.293441 -8.665558 -5.698349 0.756539 1.689628 -1.000002 -0.0 -0.0 
0.0 0.0 0.0 0.0 -0.0 0.0 -0.765362 100.035248 -3.684864 90.933327 0.197979 90.097763 -1.529767 -0.607337 0.191005 -11.209247 -0.261572 0.303791 15.649493 -0.152323 -1.568772 20.32235 -1.559013 2.489146 -2.594296 -0.741498 -0.595899 -29.805031 0.380504 -1.246998 6e-06 0.0 -0.0 -0.031879 0.02436 0.033444 0.020866 0.052598 0.054371 0.032331 -0.008285 0.0176 -134.211288 -58.882965 155.736176 41.689072 -45.1609 4.131649 22.654497 -0.232004 -0.037271 -4.062618 2.997423 -6.275884 17.63662 -26.322729 52.411194 -19.466652 -14.395597 29.410385 0.0 -8.774821 -2e-06 16.253962 -17.77706 5.778123 -0.609777 -1.795653 -3.889328 -4.807088 -11.046807 -2.937849 3e-06 -20.976013 1e-06 -5.019972 -25.033552 -4.03188 7e-06 -0.0 0.0 -10.634535 -5.686969 -3.565585 10.573271 -17.922945 -3.1139 1e-06 -13.821203 3e-06 -0.501779 -31.181488 -4.027015 -10.438473 -59.321896 6.152153 -13.982714 -7.150198 -2.875041 13.772727 -8.401488 -3.218242 0.34773 -34.211536 0.771656 -0.96303 -17.733362 2.621019 1e-06 -1e-06 -2e-06 -17.346416 -20.095213 -4.201781 21.757555 -1.638374 3.866427 1e-06 -6.338823 2e-06 -1.69759 -22.591736 -6.194005 -1e-06 -3e-06 -2e-06 63.843533 -72.630501 131.362991 36.360634 -63.00956 11.350762 28.539078 -0.171891 0.036237 -0.596411 -1.40785 8.186291 22.182112 -20.375889 49.933315 -16.701815 -16.743526 28.47653 -3e-06 -12.6906 -1e-06 16.24423 -17.660168 2.438308 -0.10592 -1.513857 -4.27588 -5.03904 -5.612873 -2.953557 3e-06 -11.020523 -3e-06 -6.111297 -15.895334 -3.840469 0.0 0.0 -1e-06 -10.283369 -5.680288 -4.341835 11.028292 -11.302404 -2.372635 -1.38427 -14.238579 -6.320122 -0.625439 -26.924189 -3.8276 -4.55304 -49.995468 -3.664137 -13.708524 -7.363478 -3.720943 18.141148 -14.052739 -3.242675 8e-06 -18.78727 -5e-06 -0.429711 -8.456045 2.555504 1e-06 -1e-06 1e-06 -15.923538 -20.094484 -5.47358 30.419207 -7.190823 1.735924 1e-06 -8.162925 1e-06 -1.8619 -22.861469 -6.167945 1e-06 -4e-06 -3e-06 179.950714 -3.702317 -7.4511 9.539198 0.000262 0.159616 -77.381004 -6.264772 -11.017292 -5.90861 1.518078 2.105561 -1.0 0.0 0.0 1.361644 -6.02511 -5.590929 10.108949 0.035126 0.017615 -80.355835 4.285695 -8.643447 -5.706165 0.749951 1.688322 -1.000003 -0.0 -0.0 
